<mxfile host="65bd71144e">
    <diagram name="第 1 页" id="_8b9xX-DKGfx3M6socpL">
        <mxGraphModel dx="750" dy="557" grid="1" gridSize="10" guides="1" tooltips="1" connect="1" arrows="1" fold="1" page="1" pageScale="1" pageWidth="827" pageHeight="1169" math="0" shadow="0">
            <root>
                <mxCell id="0"/>
                <mxCell id="1" parent="0"/>
                <mxCell id="Ej_gXv6W23z51N9Fan9D-1" value="" style="rounded=0;orthogonalLoop=1;jettySize=auto;html=1;endArrow=none;startFill=0;" parent="1" source="Ej_gXv6W23z51N9Fan9D-4" target="Ej_gXv6W23z51N9Fan9D-7" edge="1">
                    <mxGeometry relative="1" as="geometry"/>
                </mxCell>
                <mxCell id="Ej_gXv6W23z51N9Fan9D-2" value="" style="edgeStyle=none;rounded=0;orthogonalLoop=1;jettySize=auto;html=1;endArrow=none;startFill=0;" parent="1" source="Ej_gXv6W23z51N9Fan9D-4" target="Ej_gXv6W23z51N9Fan9D-9" edge="1">
                    <mxGeometry relative="1" as="geometry"/>
                </mxCell>
                <mxCell id="Ej_gXv6W23z51N9Fan9D-4" value="&lt;font style=&quot;color: rgb(0, 0, 0); font-size: 18px;&quot;&gt;A&lt;/font&gt;" style="ellipse;whiteSpace=wrap;html=1;aspect=fixed;fillColor=#66B2FF;" parent="1" vertex="1">
                    <mxGeometry x="110" y="140" width="40" height="40" as="geometry"/>
                </mxCell>
                <mxCell id="Ej_gXv6W23z51N9Fan9D-7" value="&lt;font style=&quot;color: rgb(0, 0, 0); font-size: 18px;&quot;&gt;B&lt;/font&gt;" style="ellipse;whiteSpace=wrap;html=1;aspect=fixed;fillColor=#66B2FF;" parent="1" vertex="1">
                    <mxGeometry x="220" y="140" width="40" height="40" as="geometry"/>
                </mxCell>
                <mxCell id="Ej_gXv6W23z51N9Fan9D-8" value="" style="edgeStyle=none;rounded=0;orthogonalLoop=1;jettySize=auto;html=1;endArrow=none;startFill=0;" parent="1" source="Ej_gXv6W23z51N9Fan9D-9" target="Ej_gXv6W23z51N9Fan9D-10" edge="1">
                    <mxGeometry relative="1" as="geometry"/>
                </mxCell>
                <mxCell id="Ej_gXv6W23z51N9Fan9D-9" value="&lt;font style=&quot;color: rgb(0, 0, 0); font-size: 18px;&quot;&gt;D&lt;/font&gt;" style="ellipse;whiteSpace=wrap;html=1;aspect=fixed;fillColor=#66B2FF;" parent="1" vertex="1">
                    <mxGeometry x="110" y="260" width="40" height="40" as="geometry"/>
                </mxCell>
                <mxCell id="Ej_gXv6W23z51N9Fan9D-14" style="rounded=0;orthogonalLoop=1;jettySize=auto;html=1;entryX=0.5;entryY=1;entryDx=0;entryDy=0;endArrow=none;startFill=0;" parent="1" source="Ej_gXv6W23z51N9Fan9D-10" target="Ej_gXv6W23z51N9Fan9D-12" edge="1">
                    <mxGeometry relative="1" as="geometry"/>
                </mxCell>
                <mxCell id="Ej_gXv6W23z51N9Fan9D-10" value="&lt;font style=&quot;color: rgb(0, 0, 0); font-size: 18px;&quot;&gt;C&lt;/font&gt;" style="ellipse;whiteSpace=wrap;html=1;aspect=fixed;fillColor=#66B2FF;" parent="1" vertex="1">
                    <mxGeometry x="220" y="260" width="40" height="40" as="geometry"/>
                </mxCell>
                <mxCell id="Ej_gXv6W23z51N9Fan9D-11" value="&lt;font style=&quot;font-size: 18px;&quot;&gt;无向图转邻接矩阵、邻接表&lt;/font&gt;" style="text;html=1;align=center;verticalAlign=middle;whiteSpace=wrap;rounded=0;" parent="1" vertex="1">
                    <mxGeometry x="140" y="90" width="230" height="30" as="geometry"/>
                </mxCell>
                <mxCell id="Ej_gXv6W23z51N9Fan9D-15" style="rounded=0;orthogonalLoop=1;jettySize=auto;html=1;exitX=0.5;exitY=0;exitDx=0;exitDy=0;entryX=1;entryY=0.5;entryDx=0;entryDy=0;endArrow=none;startFill=0;" parent="1" source="Ej_gXv6W23z51N9Fan9D-12" target="Ej_gXv6W23z51N9Fan9D-7" edge="1">
                    <mxGeometry relative="1" as="geometry"/>
                </mxCell>
                <mxCell id="Ej_gXv6W23z51N9Fan9D-12" value="&lt;span style=&quot;font-size: 18px;&quot;&gt;E&lt;/span&gt;" style="ellipse;whiteSpace=wrap;html=1;aspect=fixed;fillColor=#66B2FF;" parent="1" vertex="1">
                    <mxGeometry x="340" y="200" width="40" height="40" as="geometry"/>
                </mxCell>
            </root>
        </mxGraphModel>
    </diagram>
</mxfile>